<svg xmlns="http://www.w3.org/2000/svg" xmlns:xlink="http://www.w3.org/1999/xlink" version="1.1" id="Layer_1" x="0px" y="0px" width="100px" height="100px" viewBox="0 0 100 100" enable-background="new 0 0 100 100" xml:space="preserve">
<g>
	<path fill="none" d="M76.254,80.263c-0.342-0.335-0.731-0.601-1.175-0.799c-0.438-0.185-0.909-0.28-1.414-0.28   c-0.499,0-0.978,0.096-1.435,0.28c-0.458,0.198-0.854,0.464-1.195,0.799c-0.335,0.342-0.608,0.731-0.82,1.175   c-0.204,0.438-0.307,0.923-0.307,1.455c0,0.472,0.103,0.936,0.307,1.394c0.212,0.458,0.485,0.854,0.82,1.195   c0.341,0.342,0.737,0.615,1.195,0.819c0.457,0.205,0.949,0.308,1.482,0.308c0.498,0,0.97-0.109,1.413-0.335   c0.444-0.218,0.827-0.505,1.148-0.86c0.32-0.354,0.587-0.751,0.799-1.195c0.205-0.437,0.308-0.881,0.308-1.325   c0-0.532-0.103-1.018-0.308-1.455C76.861,80.994,76.588,80.604,76.254,80.263z"/>
	<rect x="65.611" y="23.323" fill="none" width="16.079" height="5.963"/>
	<polygon fill="none" points="19.84,84.84 27.436,77.237 34.99,84.84 38.576,81.254 30.98,73.699 38.576,66.145 34.99,62.559    27.436,70.105 19.936,62.559 16.343,66.145 23.849,73.699 16.247,81.254  "/>
	<polygon fill="none" points="23.985,37.469 28.72,37.469 28.72,28.672 37.518,28.672 37.518,23.938 28.72,23.938 28.72,15.14    23.985,15.14 23.985,23.938 15.188,23.938 15.188,28.672 23.985,28.672  "/>
	<rect x="62.483" y="71.355" fill="none" width="22.329" height="4.728"/>
	<path fill="none" d="M71.035,67.176c0.341,0.342,0.737,0.601,1.195,0.799c0.457,0.185,0.949,0.287,1.482,0.287   c0.498,0,0.97-0.109,1.413-0.314c0.444-0.205,0.827-0.484,1.148-0.84c0.32-0.355,0.587-0.752,0.799-1.195   c0.205-0.438,0.308-0.895,0.308-1.366c0-0.533-0.103-1.024-0.308-1.482c-0.212-0.458-0.485-0.854-0.819-1.195   c-0.342-0.342-0.731-0.601-1.175-0.792c-0.438-0.191-0.909-0.294-1.414-0.294c-1.004,0-1.879,0.362-2.63,1.086   c-0.752,0.724-1.127,1.612-1.127,2.678c0,0.499,0.103,0.977,0.307,1.435C70.427,66.438,70.7,66.834,71.035,67.176z"/>
	<path d="M86.95,5.004H52.395v42.602h42.507V12.947C94.901,8.556,91.343,5.004,86.95,5.004z M81.69,29.286H65.611v-5.963H81.69   V29.286z"/>
	<path d="M5.099,13.009v34.597h42.508V5.004H13.043C8.658,5.004,5.099,8.617,5.099,13.009z M15.188,23.938h8.798V15.14h4.734v8.798   h8.798v4.734H28.72v8.797h-4.734v-8.797h-8.798V23.938z"/>
	<path d="M5.099,87.053c0,4.392,3.56,7.943,7.951,7.943h34.557V52.395H5.099V87.053z M16.343,66.145l3.593-3.586l7.5,7.547   l7.555-7.547l3.586,3.586l-7.596,7.555l7.596,7.555L34.99,84.84l-7.555-7.603L19.84,84.84l-3.593-3.586l7.602-7.555L16.343,66.145z   "/>
	<path d="M52.395,94.996h34.562c4.386,0,7.944-3.552,7.944-7.943V52.395H52.395V94.996z M77.073,84.218   c-0.212,0.444-0.479,0.841-0.799,1.195c-0.321,0.355-0.704,0.643-1.148,0.86c-0.443,0.226-0.915,0.335-1.413,0.335   c-0.533,0-1.025-0.103-1.482-0.308c-0.458-0.204-0.854-0.478-1.195-0.819c-0.335-0.342-0.608-0.737-0.82-1.195   c-0.204-0.458-0.307-0.922-0.307-1.394c0-0.532,0.103-1.018,0.307-1.455c0.212-0.443,0.485-0.833,0.82-1.175   c0.341-0.335,0.737-0.601,1.195-0.799c0.457-0.185,0.936-0.28,1.435-0.28c0.505,0,0.977,0.096,1.414,0.28   c0.443,0.198,0.833,0.464,1.175,0.799c0.334,0.342,0.607,0.731,0.819,1.175c0.205,0.438,0.308,0.923,0.308,1.455   C77.381,83.337,77.278,83.781,77.073,84.218z M71.035,61.868c0.751-0.724,1.626-1.086,2.63-1.086c0.505,0,0.977,0.103,1.414,0.294   c0.443,0.191,0.833,0.45,1.175,0.792c0.334,0.342,0.607,0.737,0.819,1.195c0.205,0.458,0.308,0.949,0.308,1.482   c0,0.472-0.103,0.929-0.308,1.366c-0.212,0.443-0.479,0.84-0.799,1.195c-0.321,0.355-0.704,0.635-1.148,0.84   c-0.443,0.205-0.915,0.314-1.413,0.314c-0.533,0-1.025-0.103-1.482-0.287c-0.458-0.198-0.854-0.457-1.195-0.799   c-0.335-0.342-0.608-0.738-0.82-1.195c-0.204-0.458-0.307-0.936-0.307-1.435C69.908,63.48,70.283,62.592,71.035,61.868z    M62.483,71.355h22.329v4.728H62.483V71.355z"/>
</g>
</svg>